<?xml version="1.0" standalone="no"?>
<!DOCTYPE svg PUBLIC "-//W3C//DTD SVG 20010904//EN"
 "http://www.w3.org/TR/2001/REC-SVG-20010904/DTD/svg10.dtd">
<svg version="1.0" xmlns="http://www.w3.org/2000/svg"
 width="256.000000pt" height="256.000000pt" viewBox="0 0 256.000000 256.000000"
 preserveAspectRatio="xMidYMid meet">

<g transform="translate(0.000000,256.000000) scale(0.100000,-0.100000)"
fill="#000000" stroke="none">
<path d="M0 1280 l0 -1280 1280 0 1280 0 0 1280 0 1280 -1280 0 -1280 0 0
-1280z m960 720 l0 -400 -400 0 -400 0 0 400 0 400 400 0 400 0 0 -400z m400
-120 l0 -520 520 0 520 0 0 -80 0 -80 -520 0 -520 0 0 -520 0 -520 -80 0 -80
0 0 520 0 520 -520 0 -520 0 0 80 0 80 520 0 520 0 0 520 0 520 80 0 80 0 0
-520z m1040 120 l0 -400 -400 0 -400 0 0 400 0 400 400 0 400 0 0 -400z
m-1440 -1440 l0 -400 -400 0 -400 0 0 400 0 400 400 0 400 0 0 -400z m1440 0
l0 -400 -400 0 -400 0 0 400 0 400 400 0 400 0 0 -400z"/>
<path d="M320 2000 l0 -240 240 0 240 0 0 240 0 240 -240 0 -240 0 0 -240z"/>
<path d="M1760 2000 l0 -240 240 0 240 0 0 240 0 240 -240 0 -240 0 0 -240z"/>
<path d="M320 560 l0 -240 240 0 240 0 0 240 0 240 -240 0 -240 0 0 -240z"/>
<path d="M1760 560 l0 -240 240 0 240 0 0 240 0 240 -240 0 -240 0 0 -240z"/>
</g>
</svg>
