<?xml version="1.0" standalone="no"?>
<!DOCTYPE svg PUBLIC "-//W3C//DTD SVG 20010904//EN"
 "http://www.w3.org/TR/2001/REC-SVG-20010904/DTD/svg10.dtd">
<svg version="1.0" xmlns="http://www.w3.org/2000/svg"
 width="512.000000pt" height="512.000000pt" viewBox="0 0 512.000000 512.000000"
 preserveAspectRatio="xMidYMid meet">

<g transform="translate(0.000000,512.000000) scale(0.100000,-0.100000)"
fill="#000000" stroke="none">
<path d="M251 4869 c-100 -20 -181 -84 -225 -178 l-21 -46 0 -1125 0 -1125 28
-57 c33 -68 100 -130 165 -153 30 -11 91 -19 170 -22 l122 -5 0 -210 c0 -234
6 -264 64 -299 39 -24 113 -25 145 -3 13 10 149 129 303 265 l279 249 99 0 99
0 3 -572 c3 -561 3 -574 24 -619 31 -67 87 -124 152 -156 l57 -28 1061 -3
1061 -2 291 -260 c331 -294 339 -299 420 -258 77 38 82 56 82 304 l0 212 128
4 c105 3 135 7 177 26 63 29 119 83 153 147 l27 50 3 284 c3 282 3 283 -19
307 -30 32 -78 32 -107 1 -21 -23 -22 -30 -22 -280 0 -289 -3 -305 -66 -353
-36 -28 -41 -29 -184 -34 -158 -5 -182 -13 -217 -67 -15 -23 -19 -59 -23 -238
l-5 -212 -275 244 c-151 135 -287 251 -302 259 -23 12 -192 14 -1080 14
l-1054 0 -44 23 c-33 16 -51 34 -67 67 l-23 44 0 548 0 548 858 0 c943 0 929
-1 1018 60 42 30 84 83 114 145 12 25 16 114 18 503 l3 472 617 -2 c599 -3
618 -4 644 -23 15 -11 37 -38 48 -61 19 -39 20 -59 20 -711 0 -640 1 -672 19
-694 26 -32 86 -32 112 0 18 22 19 54 19 700 0 756 1 740 -68 828 -22 27 -62
61 -93 78 l-54 30 -632 3 -632 3 -3 577 c-3 576 -3 577 -26 622 -37 75 -78
117 -150 152 l-67 33 -1155 3 c-635 1 -1165 0 -1178 -3 -32 -8 -62 -41 -62
-69 0 -13 9 -35 21 -49 l20 -27 1167 -2 1167 -3 37 -23 c21 -13 45 -40 57 -66
21 -42 21 -50 21 -1116 0 -1066 0 -1074 -21 -1116 -12 -26 -36 -53 -57 -66
l-37 -23 -1076 -5 c-936 -4 -1078 -7 -1095 -20 -10 -8 -141 -124 -291 -258
l-273 -243 0 206 c0 303 -3 307 -230 315 -161 6 -191 16 -232 72 l-23 33 0
1105 0 1105 23 33 c46 64 60 67 334 70 l248 3 20 26 c33 42 25 85 -21 108 -22
12 -73 15 -246 14 -120 -1 -238 -5 -262 -10z"/>
<path d="M1348 3591 c-27 -24 -33 -36 -33 -71 0 -35 6 -47 33 -71 44 -40 93
-40 133 0 62 62 20 171 -65 171 -25 0 -45 -9 -68 -29z"/>
<path d="M1768 3604 c-35 -18 -48 -43 -48 -89 0 -98 141 -131 186 -44 23 45
17 78 -20 115 -38 38 -73 43 -118 18z"/>
<path d="M2159 3592 c-28 -25 -34 -37 -34 -72 0 -35 6 -47 33 -71 44 -40 93
-40 133 0 60 60 27 156 -57 168 -36 5 -46 1 -75 -25z"/>
</g>
</svg>
