<?xml version="1.0" standalone="no"?>
<!DOCTYPE svg PUBLIC "-//W3C//DTD SVG 20010904//EN"
 "http://www.w3.org/TR/2001/REC-SVG-20010904/DTD/svg10.dtd">
<svg version="1.0" xmlns="http://www.w3.org/2000/svg"
 width="256.000000pt" height="256.000000pt" viewBox="0 0 256.000000 256.000000"
 preserveAspectRatio="xMidYMid meet">

<g transform="translate(0.000000,256.000000) scale(0.100000,-0.100000)"
fill="#000000" stroke="none">
<path d="M0 2238 l1 -323 20 37 c12 23 35 46 59 58 39 20 57 20 1200 20 1143
0 1161 0 1200 -20 24 -12 47 -35 59 -58 l20 -37 1 323 0 322 -1280 0 -1280 0
0 -322z"/>
<path d="M115 1914 c-13 -13 -15 -38 -13 -151 l3 -136 42 -12 c100 -30 176
-96 222 -195 37 -79 37 -201 0 -280 -46 -99 -122 -165 -222 -195 l-42 -12 -3
-136 c-2 -113 0 -138 13 -151 14 -14 49 -16 251 -16 l234 0 0 84 c0 89 11 116
50 116 39 0 50 -27 50 -116 l0 -84 864 0 c779 0 866 2 881 16 13 13 15 38 13
151 l-3 136 -42 12 c-100 30 -176 96 -222 195 -37 79 -37 201 0 280 46 99 122
165 222 195 l42 12 3 136 c2 113 0 138 -13 151 -15 14 -102 16 -881 16 l-864
0 0 -84 c0 -89 -11 -116 -50 -116 -39 0 -50 27 -50 116 l0 84 -234 0 c-202 0
-237 -2 -251 -16z m569 -300 c12 -11 16 -35 16 -84 0 -73 -14 -100 -50 -100
-36 0 -50 27 -50 100 0 73 14 100 50 100 10 0 26 -7 34 -16z m1260 0 c9 -8 16
-24 16 -34 0 -10 -7 -26 -16 -34 -14 -14 -70 -16 -464 -16 -394 0 -450 2 -464
16 -9 8 -16 24 -16 34 0 10 7 26 16 34 14 14 70 16 464 16 394 0 450 -2 464
-16z m-1260 -300 c9 -8 16 -24 16 -34 0 -10 -7 -26 -16 -34 -30 -31 -84 -9
-84 34 0 24 26 50 50 50 10 0 26 -7 34 -16z m1260 0 c9 -8 16 -24 16 -34 0
-10 -7 -26 -16 -34 -14 -14 -70 -16 -464 -16 -394 0 -450 2 -464 16 -9 8 -16
24 -16 34 0 10 7 26 16 34 14 14 70 16 464 16 394 0 450 -2 464 -16z m-1260
-200 c12 -11 16 -35 16 -84 0 -73 -14 -100 -50 -100 -36 0 -50 27 -50 100 0
73 14 100 50 100 10 0 26 -7 34 -16z m1260 -100 c9 -8 16 -24 16 -34 0 -10 -7
-26 -16 -34 -14 -14 -70 -16 -464 -16 -394 0 -450 2 -464 16 -9 8 -16 24 -16
34 0 10 7 26 16 34 14 14 70 16 464 16 394 0 450 -2 464 -16z"/>
<path d="M0 1280 c0 -256 1 -280 16 -266 8 9 28 16 43 16 123 0 241 123 241
250 0 127 -118 250 -241 250 -15 0 -35 7 -43 16 -15 14 -16 -10 -16 -266z"/>
<path d="M2542 1545 c-7 -8 -25 -15 -41 -15 -123 0 -241 -122 -241 -250 0
-127 118 -250 241 -250 15 0 35 -7 43 -16 15 -14 16 10 16 265 0 155 -1 281
-2 281 -2 -1 -9 -7 -16 -15z"/>
<path d="M0 323 l0 -323 1280 0 1280 0 0 323 0 322 -24 -39 c-49 -81 54 -75
-1256 -76 l-1165 0 -39 24 c-22 13 -47 39 -57 57 -18 33 -18 28 -19 -288z"/>
</g>
</svg>
