<?xml version="1.0" standalone="no"?>
<!DOCTYPE svg PUBLIC "-//W3C//DTD SVG 20010904//EN"
 "http://www.w3.org/TR/2001/REC-SVG-20010904/DTD/svg10.dtd">
<svg version="1.0" xmlns="http://www.w3.org/2000/svg"
 width="256.000000pt" height="256.000000pt" viewBox="0 0 256.000000 256.000000"
 preserveAspectRatio="xMidYMid meet">

<g transform="translate(0.000000,256.000000) scale(0.100000,-0.100000)"
fill="#000000" stroke="none">
<path d="M1 1813 l0 -748 28 135 c33 156 101 420 132 512 38 115 99 196 197
262 124 84 147 88 560 99 244 7 480 7 725 0 350 -9 364 -11 434 -35 149 -53
268 -171 319 -316 31 -91 100 -357 135 -522 l28 -135 0 748 1 747 -1280 0
-1280 0 1 -747z"/>
<path d="M790 1970 c0 -46 24 -94 59 -119 34 -24 40 -51 15 -72 -13 -11 -21
-10 -51 6 -49 27 -84 83 -92 147 l-6 53 -60 3 c-161 9 -327 -92 -400 -243 -27
-56 -98 -312 -146 -529 -57 -258 -31 -396 98 -525 156 -155 406 -176 580 -48
65 48 101 92 139 167 25 51 25 70 -2 70 -8 0 -37 22 -63 48 -82 82 -90 191
-19 276 111 136 342 77 365 -92 l6 -42 67 0 67 0 6 42 c23 169 253 228 365 92
71 -85 63 -194 -19 -276 -26 -26 -55 -48 -63 -48 -36 0 -28 -34 31 -127 17
-28 56 -70 85 -93 60 -48 71 -62 62 -83 -17 -44 -69 -21 -156 71 -52 54 -103
137 -117 191 -5 15 -19 27 -46 37 -50 17 -85 43 -110 82 -20 31 -21 31 -105
31 -84 0 -85 0 -105 -31 -25 -39 -60 -65 -110 -82 -28 -10 -41 -21 -46 -39
-28 -103 -147 -240 -258 -297 -299 -150 -668 19 -747 342 -10 46 -12 -13 -13
-414 l-1 -468 1280 0 1280 0 -1 468 c-1 401 -3 460 -13 414 -34 -138 -136
-269 -261 -333 -91 -47 -153 -63 -245 -64 -100 0 -147 11 -155 36 -13 39 9 48
103 42 153 -10 266 30 365 128 129 129 155 267 98 525 -48 217 -119 473 -146
529 -73 151 -239 252 -400 243 l-60 -3 -6 -53 c-9 -72 -47 -125 -115 -158
l-53 -26 -346 -1 c-329 -2 -347 -1 -360 17 -10 13 -11 24 -5 37 9 16 36 18
357 21 310 3 352 5 380 21 43 23 64 57 71 112 l5 45 -492 0 -491 0 0 -30z
m-174 -246 c39 -19 72 -59 80 -101 4 -23 15 -32 56 -48 28 -11 60 -32 70 -46
22 -29 34 -95 24 -133 -11 -44 -64 -95 -105 -102 -34 -5 -38 -10 -49 -49 -24
-90 -122 -136 -206 -95 -48 23 -70 49 -83 101 -7 26 -16 35 -39 39 -72 16
-118 75 -117 152 1 66 40 117 106 138 35 11 47 20 47 35 0 31 36 83 72 105 40
24 98 26 144 4z m1571 -54 c63 -38 83 -131 42 -197 -52 -84 -180 -86 -239 -2
-28 38 -30 117 -6 154 41 63 139 84 203 45z m-716 -89 c33 -33 39 -83 15 -130
-23 -43 -54 -51 -207 -51 l-141 0 -34 34 c-49 49 -45 114 10 158 18 15 44 18
174 18 l154 0 29 -29z m474 -131 c74 -36 101 -116 63 -189 -39 -76 -127 -103
-196 -61 -98 60 -94 201 8 252 45 23 74 23 125 -2z"/>
<path d="M514 1659 c-27 -14 -44 -50 -44 -94 0 -40 -20 -55 -73 -55 -22 0 -41
-8 -55 -23 -48 -51 -8 -127 66 -127 48 0 62 -14 62 -62 0 -49 35 -88 80 -88
41 0 66 28 75 86 8 56 16 64 66 64 72 0 111 70 69 123 -16 20 -30 27 -56 27
-56 0 -73 14 -80 70 -4 27 -14 56 -23 64 -23 20 -62 27 -87 15z"/>
<path d="M2062 1597 c-12 -13 -22 -35 -22 -48 0 -31 38 -69 69 -69 28 0 71 42
71 70 0 28 -43 70 -73 70 -13 0 -33 -10 -45 -23z"/>
<path d="M1151 1521 c-8 -15 -7 -23 5 -35 12 -13 39 -16 128 -16 124 0 161 12
140 47 -10 16 -28 18 -137 21 -116 2 -127 1 -136 -17z"/>
<path d="M1831 1364 c-24 -30 -24 -34 -11 -68 9 -25 49 -43 80 -37 27 5 50 33
50 60 0 69 -77 98 -119 45z"/>
<path d="M941 1192 c-64 -35 -88 -114 -53 -181 34 -67 121 -90 183 -48 93 62
83 191 -17 233 -45 19 -73 18 -113 -4z"/>
<path d="M1504 1196 c-99 -43 -107 -172 -15 -233 62 -42 147 -19 183 48 35 66
12 146 -53 181 -40 21 -72 22 -115 4z"/>
</g>
</svg>
