<?xml version="1.0" standalone="no"?>
<!DOCTYPE svg PUBLIC "-//W3C//DTD SVG 20010904//EN"
 "http://www.w3.org/TR/2001/REC-SVG-20010904/DTD/svg10.dtd">
<svg version="1.0" xmlns="http://www.w3.org/2000/svg"
 width="256.000000pt" height="256.000000pt" viewBox="0 0 256.000000 256.000000"
 preserveAspectRatio="xMidYMid meet">

<g transform="translate(0.000000,256.000000) scale(0.100000,-0.100000)"
fill="#000000" stroke="none">
<path d="M0 1932 l0 -627 137 136 c601 593 1165 730 1762 429 215 -108 441
-295 600 -495 l61 -76 0 630 0 631 -1280 0 -1280 0 0 -628z"/>
<path d="M1122 1905 c-232 -42 -505 -186 -762 -403 -52 -44 -126 -112 -165
-151 l-69 -71 69 -71 c162 -164 369 -320 557 -419 374 -196 670 -198 1045 -6
185 95 399 255 567 425 l79 79 -149 149 c-159 159 -269 243 -431 330 -236 126
-517 179 -741 138z m304 -226 c111 -42 190 -115 239 -222 118 -257 -42 -552
-324 -598 -225 -36 -444 127 -482 360 -28 176 73 366 236 442 110 52 223 58
331 18z"/>
<path d="M1205 1591 c-92 -24 -173 -90 -215 -176 -19 -41 -24 -66 -24 -135 -1
-78 2 -90 33 -148 38 -70 70 -100 145 -140 43 -22 64 -26 136 -26 72 0 93 4
136 26 75 40 107 70 145 140 31 58 34 70 33 148 0 72 -4 93 -26 136 -39 75
-70 107 -137 143 -65 34 -164 49 -226 32z"/>
<path d="M0 628 l0 -628 1280 0 1280 0 0 628 0 627 -137 -136 c-209 -206 -379
-332 -591 -438 -204 -102 -364 -144 -552 -144 -362 -1 -747 195 -1133 573
l-147 145 0 -627z"/>
</g>
</svg>
